%
M48
M72
T01C0.0240
T02C0.0276
T03C0.0315
T04C0.0360
T05C0.0394
%
T01
X9038Y10967
T02
X17609Y13550
X18609Y13550
X18629Y16149
X17629Y16149
X17629Y18601
X18629Y18601
T03
X18361Y11885
X18361Y11097
X18361Y10310
X18361Y9523
X18361Y8735
X18361Y7948
X18361Y7160
X18361Y6373
X18361Y5586
X18361Y4798
X9700Y4798
X9700Y5586
X9700Y6373
X9700Y7160
X9700Y7948
X9700Y8735
X9700Y9523
X9700Y10310
X9700Y11097
X9700Y11885
T04
X8436Y9751
X8436Y6751
T05
X7149Y5310
X7149Y6310
X7149Y7310
X7149Y8310
X7149Y9310
X7149Y10310
X7149Y11310
X7149Y12310
X7149Y13310
X7149Y14310
X7149Y15310
X7149Y16310
X7149Y17310
X7149Y18310
X7149Y19310
X7149Y20310
X9003Y20735
X9790Y20735
X10578Y20735
X10578Y18853
X9790Y18853
X9003Y18853
X9003Y16971
X9790Y16971
X10578Y16971
X10578Y15089
X9790Y15089
X9003Y15089
X12739Y15089
X13526Y15089
X14314Y15089
X16149Y15310
X16149Y16310
X16149Y17310
X16149Y18310
X16149Y19310
X16149Y20310
X14314Y20735
X13526Y20735
X12739Y20735
X12739Y18853
X13526Y18853
X14314Y18853
X14314Y16971
X13526Y16971
X12739Y16971
X16149Y14310
X16149Y13310
X16149Y12310
X16149Y11310
X16149Y10310
X16149Y9310
X16149Y8310
X16149Y7310
X16149Y6310
X16149Y5310
X13511Y7168
X12511Y7168
M30
