G75*
G70*
%OFA0B0*%
%FSLAX24Y24*%
%IPPOS*%
%LPD*%
%AMOC8*
5,1,8,0,0,1.08239X$1,22.5*
%
%ADD10C,0.0700*%
%ADD11OC8,0.0560*%
%ADD12R,0.0650X0.0650*%
%ADD13C,0.0650*%
%ADD14C,0.0515*%
%ADD15R,0.0594X0.0594*%
%ADD16C,0.0400*%
%ADD17C,0.0160*%
%ADD18C,0.0100*%
%ADD19C,0.0400*%
D10*
X007149Y005310D03*
X007149Y006310D03*
X007149Y007310D03*
X007149Y008310D03*
X007149Y009310D03*
X007149Y010310D03*
X007149Y011310D03*
X007149Y012310D03*
X007149Y013310D03*
X007149Y014310D03*
X007149Y015310D03*
X007149Y016310D03*
X007149Y017310D03*
X007149Y018310D03*
X007149Y019310D03*
X007149Y020310D03*
X016149Y020310D03*
X016149Y019310D03*
X016149Y018310D03*
X016149Y017310D03*
X016149Y016310D03*
X016149Y015310D03*
X016149Y014310D03*
X016149Y013310D03*
X016149Y012310D03*
X016149Y011310D03*
X016149Y010310D03*
X016149Y009310D03*
X016149Y008310D03*
X016149Y007310D03*
X016149Y006310D03*
X016149Y005310D03*
X013511Y007168D03*
X012511Y007168D03*
D11*
X008436Y006751D03*
X008436Y009751D03*
D12*
X018609Y013550D03*
X018629Y016149D03*
X018629Y018601D03*
D13*
X017629Y018601D03*
X017629Y016149D03*
X017609Y013550D03*
D14*
X018361Y011885D03*
X018361Y011097D03*
X018361Y010310D03*
X018361Y009523D03*
X018361Y008735D03*
X018361Y007948D03*
X018361Y007160D03*
X018361Y006373D03*
X018361Y005586D03*
X018361Y004798D03*
X009700Y004798D03*
X009700Y005586D03*
X009700Y006373D03*
X009700Y007160D03*
X009700Y007948D03*
X009700Y008735D03*
X009700Y009523D03*
X009700Y010310D03*
X009700Y011097D03*
X009700Y011885D03*
D15*
X009790Y015089D03*
X009003Y015089D03*
X010578Y015089D03*
X010578Y016971D03*
X009790Y016971D03*
X009003Y016971D03*
X009003Y018853D03*
X009790Y018853D03*
X010578Y018853D03*
X010578Y020735D03*
X009790Y020735D03*
X009003Y020735D03*
X012739Y020735D03*
X013526Y020735D03*
X014314Y020735D03*
X014314Y018853D03*
X013526Y018853D03*
X012739Y018853D03*
X012739Y016971D03*
X013526Y016971D03*
X014314Y016971D03*
X014314Y015089D03*
X013526Y015089D03*
X012739Y015089D03*
D16*
X013133Y018290D02*
X012739Y018684D01*
X012739Y018853D01*
X012542Y018605D01*
X012227Y018290D01*
X009393Y018290D01*
X009019Y018664D01*
X009019Y018841D01*
X009003Y018853D01*
X009790Y018853D02*
X009806Y018861D01*
X009806Y019038D01*
X010180Y019412D01*
X013133Y019412D01*
X013526Y019019D01*
X013526Y018853D01*
X013526Y019019D02*
X013920Y019412D01*
X015948Y019412D01*
X016149Y019310D01*
X016145Y019491D01*
X016145Y020298D01*
X016149Y020310D01*
X016149Y019310D02*
X016164Y019294D01*
X017936Y019294D01*
X018629Y018601D01*
X017629Y018601D02*
X017621Y018586D01*
X017345Y018310D01*
X016149Y018310D01*
X015948Y018271D01*
X015928Y018290D01*
X013133Y018290D01*
X016149Y018310D02*
X016145Y018113D01*
X016145Y017326D01*
X016149Y017310D01*
X016341Y017247D01*
X016538Y017247D01*
X017621Y016164D01*
X017629Y016149D01*
X009038Y010967D02*
X009038Y007345D01*
X008448Y006755D01*
X008436Y006751D01*
D17*
X006566Y004321D02*
X006566Y021141D01*
X008561Y021141D01*
X008538Y021101D01*
X008526Y021056D01*
X008526Y020754D01*
X008984Y020754D01*
X008984Y020717D01*
X008526Y020717D01*
X008526Y020415D01*
X008538Y020369D01*
X008562Y020328D01*
X008595Y020294D01*
X008637Y020271D01*
X008682Y020258D01*
X008984Y020258D01*
X008984Y020717D01*
X009021Y020717D01*
X009021Y020258D01*
X009323Y020258D01*
X009369Y020271D01*
X009410Y020294D01*
X009411Y020295D01*
X009427Y020278D01*
X010153Y020278D01*
X010184Y020309D01*
X010215Y020278D01*
X010941Y020278D01*
X011034Y020372D01*
X011034Y020895D01*
X011074Y020935D01*
X012262Y020935D01*
X012262Y020754D01*
X012721Y020754D01*
X012721Y020717D01*
X012757Y020717D01*
X012757Y020258D01*
X013060Y020258D01*
X013105Y020271D01*
X013146Y020294D01*
X013147Y020295D01*
X013163Y020278D01*
X013890Y020278D01*
X013920Y020309D01*
X013951Y020278D01*
X014677Y020278D01*
X014771Y020372D01*
X014771Y021098D01*
X014728Y021141D01*
X018920Y021141D01*
X018920Y019086D01*
X018653Y019086D01*
X018241Y019498D01*
X018140Y019599D01*
X018008Y019654D01*
X016526Y019654D01*
X016505Y019675D01*
X016505Y019945D01*
X016581Y020021D01*
X016659Y020208D01*
X016659Y020411D01*
X016581Y020599D01*
X016437Y020742D01*
X016250Y020820D01*
X016047Y020820D01*
X015860Y020742D01*
X015716Y020599D01*
X015639Y020411D01*
X015639Y020208D01*
X015716Y020021D01*
X015785Y019953D01*
X015785Y019772D01*
X013849Y019772D01*
X013716Y019717D01*
X013526Y019528D01*
X013438Y019616D01*
X013337Y019717D01*
X013204Y019772D01*
X010108Y019772D01*
X009976Y019717D01*
X009602Y019343D01*
X009569Y019310D01*
X009427Y019310D01*
X009411Y019294D01*
X009410Y019294D01*
X009369Y019318D01*
X009323Y019330D01*
X009021Y019330D01*
X009021Y018872D01*
X008984Y018872D01*
X008984Y019330D01*
X008682Y019330D01*
X008637Y019318D01*
X008595Y019294D01*
X008562Y019261D01*
X008538Y019220D01*
X008526Y019174D01*
X008526Y018872D01*
X008984Y018872D01*
X008984Y018835D01*
X008526Y018835D01*
X008526Y018533D01*
X008538Y018487D01*
X008562Y018446D01*
X008595Y018412D01*
X008637Y018389D01*
X008682Y018376D01*
X008984Y018376D01*
X008984Y018835D01*
X009021Y018835D01*
X009021Y018376D01*
X009323Y018376D01*
X009369Y018389D01*
X009410Y018412D01*
X009411Y018413D01*
X009427Y018396D01*
X010153Y018396D01*
X010184Y018427D01*
X010215Y018396D01*
X010941Y018396D01*
X011034Y018490D01*
X011034Y019052D01*
X012262Y019052D01*
X012262Y018872D01*
X012721Y018872D01*
X012721Y018835D01*
X012757Y018835D01*
X012757Y018376D01*
X013060Y018376D01*
X013105Y018389D01*
X013146Y018412D01*
X013147Y018413D01*
X013163Y018396D01*
X013890Y018396D01*
X013920Y018427D01*
X013951Y018396D01*
X014677Y018396D01*
X014771Y018490D01*
X014771Y019052D01*
X015703Y019052D01*
X015716Y019021D01*
X015860Y018878D01*
X016001Y018819D01*
X015945Y018801D01*
X015871Y018763D01*
X015803Y018714D01*
X015744Y018655D01*
X015695Y018588D01*
X015657Y018513D01*
X015632Y018434D01*
X015619Y018352D01*
X015619Y018328D01*
X016130Y018328D01*
X016130Y018291D01*
X016167Y018291D01*
X016167Y017328D01*
X016679Y017328D01*
X016679Y017352D01*
X016665Y017434D01*
X016640Y017513D01*
X016602Y017588D01*
X016553Y017655D01*
X016494Y017714D01*
X016426Y017763D01*
X016352Y017801D01*
X016325Y017810D01*
X016352Y017819D01*
X016426Y017857D01*
X016494Y017906D01*
X016553Y017965D01*
X016602Y018032D01*
X016640Y018106D01*
X016665Y018186D01*
X016679Y018268D01*
X016679Y018291D01*
X016167Y018291D01*
X016167Y018328D01*
X016679Y018328D01*
X016679Y018352D01*
X016665Y018434D01*
X016640Y018513D01*
X016602Y018588D01*
X016553Y018655D01*
X016494Y018714D01*
X016426Y018763D01*
X016352Y018801D01*
X016296Y018819D01*
X016437Y018878D01*
X016494Y018934D01*
X017248Y018934D01*
X017244Y018930D01*
X017197Y018866D01*
X017161Y018795D01*
X017136Y018720D01*
X017124Y018641D01*
X017124Y018601D01*
X017124Y018562D01*
X017136Y018483D01*
X017161Y018407D01*
X017197Y018337D01*
X017244Y018272D01*
X017300Y018216D01*
X017364Y018169D01*
X017435Y018133D01*
X017511Y018109D01*
X017589Y018096D01*
X017629Y018096D01*
X017669Y018096D01*
X017747Y018109D01*
X017823Y018133D01*
X017893Y018169D01*
X017958Y018216D01*
X018014Y018272D01*
X018061Y018337D01*
X018097Y018407D01*
X018121Y018483D01*
X018134Y018562D01*
X018134Y018587D01*
X018144Y018577D01*
X018144Y018210D01*
X018238Y018116D01*
X018920Y018116D01*
X018920Y016634D01*
X018238Y016634D01*
X018144Y016540D01*
X018144Y015757D01*
X018238Y015664D01*
X018920Y015664D01*
X018920Y014035D01*
X018218Y014035D01*
X018124Y013941D01*
X018124Y013159D01*
X018218Y013065D01*
X018920Y013065D01*
X018920Y004321D01*
X006566Y004321D01*
X006566Y004351D02*
X018920Y004351D01*
X018920Y004509D02*
X018662Y004509D01*
X018715Y004562D02*
X018779Y004715D01*
X018779Y004881D01*
X018715Y005035D01*
X018598Y005152D01*
X018502Y005192D01*
X018598Y005232D01*
X018715Y005349D01*
X018779Y005502D01*
X018779Y005669D01*
X018715Y005822D01*
X018598Y005939D01*
X018502Y005979D01*
X018598Y006019D01*
X018715Y006136D01*
X018779Y006290D01*
X018779Y006456D01*
X018715Y006609D01*
X018598Y006727D01*
X018502Y006767D01*
X018598Y006806D01*
X018715Y006924D01*
X018779Y007077D01*
X018779Y007243D01*
X018715Y007397D01*
X018598Y007514D01*
X018502Y007554D01*
X018598Y007594D01*
X018715Y007711D01*
X018779Y007865D01*
X018779Y008031D01*
X018715Y008184D01*
X018598Y008302D01*
X018502Y008341D01*
X018598Y008381D01*
X018715Y008499D01*
X018779Y008652D01*
X018779Y008818D01*
X018715Y008972D01*
X018598Y009089D01*
X018502Y009129D01*
X018598Y009169D01*
X018715Y009286D01*
X018779Y009439D01*
X018779Y009606D01*
X018715Y009759D01*
X018598Y009876D01*
X018502Y009916D01*
X018598Y009956D01*
X018715Y010073D01*
X018779Y010227D01*
X018779Y010393D01*
X018715Y010546D01*
X018598Y010664D01*
X018502Y010704D01*
X018598Y010743D01*
X018715Y010861D01*
X018779Y011014D01*
X018779Y011180D01*
X018715Y011334D01*
X018598Y011451D01*
X018502Y011491D01*
X018598Y011531D01*
X018715Y011648D01*
X018779Y011802D01*
X018779Y011968D01*
X018715Y012121D01*
X018598Y012239D01*
X018444Y012302D01*
X018278Y012302D01*
X018125Y012239D01*
X018007Y012121D01*
X017944Y011968D01*
X017944Y011802D01*
X018007Y011648D01*
X018125Y011531D01*
X018221Y011491D01*
X018125Y011451D01*
X018007Y011334D01*
X017944Y011180D01*
X017944Y011014D01*
X018007Y010861D01*
X018125Y010743D01*
X018221Y010704D01*
X018125Y010664D01*
X018007Y010546D01*
X017944Y010393D01*
X017944Y010227D01*
X018007Y010073D01*
X018125Y009956D01*
X018221Y009916D01*
X018125Y009876D01*
X018007Y009759D01*
X017944Y009606D01*
X017944Y009439D01*
X018007Y009286D01*
X018125Y009169D01*
X018221Y009129D01*
X018125Y009089D01*
X018007Y008972D01*
X017944Y008818D01*
X017944Y008652D01*
X018007Y008499D01*
X018125Y008381D01*
X018221Y008341D01*
X018125Y008302D01*
X018007Y008184D01*
X017944Y008031D01*
X017944Y007865D01*
X018007Y007711D01*
X018125Y007594D01*
X018221Y007554D01*
X018125Y007514D01*
X018007Y007397D01*
X017944Y007243D01*
X017944Y007077D01*
X018007Y006924D01*
X018125Y006806D01*
X018221Y006767D01*
X018125Y006727D01*
X018007Y006609D01*
X017944Y006456D01*
X017944Y006290D01*
X018007Y006136D01*
X018125Y006019D01*
X018221Y005979D01*
X018125Y005939D01*
X018007Y005822D01*
X017944Y005669D01*
X017944Y005502D01*
X018007Y005349D01*
X018125Y005232D01*
X018221Y005192D01*
X018125Y005152D01*
X018007Y005035D01*
X017944Y004881D01*
X017944Y004715D01*
X018007Y004562D01*
X018125Y004444D01*
X018278Y004381D01*
X018444Y004381D01*
X018598Y004444D01*
X018715Y004562D01*
X018759Y004668D02*
X018920Y004668D01*
X018920Y004826D02*
X018779Y004826D01*
X018736Y004985D02*
X018920Y004985D01*
X018920Y005143D02*
X018607Y005143D01*
X018668Y005302D02*
X018920Y005302D01*
X018920Y005460D02*
X018761Y005460D01*
X018779Y005619D02*
X018920Y005619D01*
X018920Y005777D02*
X018734Y005777D01*
X018601Y005936D02*
X018920Y005936D01*
X018920Y006094D02*
X018673Y006094D01*
X018763Y006253D02*
X018920Y006253D01*
X018920Y006411D02*
X018779Y006411D01*
X018732Y006570D02*
X018920Y006570D01*
X018920Y006728D02*
X018595Y006728D01*
X018678Y006887D02*
X018920Y006887D01*
X018920Y007045D02*
X018765Y007045D01*
X018779Y007204D02*
X018920Y007204D01*
X018920Y007362D02*
X018729Y007362D01*
X018582Y007521D02*
X018920Y007521D01*
X018920Y007679D02*
X018683Y007679D01*
X018767Y007838D02*
X018920Y007838D01*
X018920Y007996D02*
X018779Y007996D01*
X018727Y008155D02*
X018920Y008155D01*
X018920Y008313D02*
X018570Y008313D01*
X018688Y008472D02*
X018920Y008472D01*
X018920Y008630D02*
X018769Y008630D01*
X018779Y008789D02*
X018920Y008789D01*
X018920Y008947D02*
X018725Y008947D01*
X018558Y009106D02*
X018920Y009106D01*
X018920Y009264D02*
X018693Y009264D01*
X018772Y009423D02*
X018920Y009423D01*
X018920Y009581D02*
X018779Y009581D01*
X018723Y009740D02*
X018920Y009740D01*
X018920Y009898D02*
X018545Y009898D01*
X018698Y010057D02*
X018920Y010057D01*
X018920Y010215D02*
X018774Y010215D01*
X018779Y010374D02*
X018920Y010374D01*
X018920Y010532D02*
X018721Y010532D01*
X018533Y010691D02*
X018920Y010691D01*
X018920Y010849D02*
X018703Y010849D01*
X018776Y011008D02*
X018920Y011008D01*
X018920Y011166D02*
X018779Y011166D01*
X018719Y011325D02*
X018920Y011325D01*
X018920Y011483D02*
X018521Y011483D01*
X018708Y011642D02*
X018920Y011642D01*
X018920Y011800D02*
X018778Y011800D01*
X018779Y011959D02*
X018920Y011959D01*
X018920Y012117D02*
X018717Y012117D01*
X018920Y012276D02*
X018508Y012276D01*
X018214Y012276D02*
X016659Y012276D01*
X016659Y012208D02*
X016659Y012411D01*
X016581Y012599D01*
X016437Y012742D01*
X016274Y012810D01*
X016437Y012878D01*
X016581Y013021D01*
X016659Y013208D01*
X016659Y013411D01*
X016581Y013599D01*
X016437Y013742D01*
X016274Y013810D01*
X016437Y013878D01*
X016581Y014021D01*
X016659Y014208D01*
X016659Y014411D01*
X016581Y014599D01*
X016437Y014742D01*
X016274Y014810D01*
X016437Y014878D01*
X016581Y015021D01*
X016659Y015208D01*
X016659Y015411D01*
X016581Y015599D01*
X016437Y015742D01*
X016274Y015810D01*
X016437Y015878D01*
X016581Y016021D01*
X016659Y016208D01*
X016659Y016411D01*
X016581Y016599D01*
X016437Y016742D01*
X016296Y016801D01*
X016352Y016819D01*
X016426Y016857D01*
X016494Y016906D01*
X016553Y016965D01*
X016602Y017032D01*
X016640Y017106D01*
X016665Y017186D01*
X016679Y017268D01*
X016679Y017291D01*
X016167Y017291D01*
X016167Y017328D01*
X016130Y017328D01*
X016130Y017291D01*
X015619Y017291D01*
X015619Y017268D01*
X015632Y017186D01*
X015657Y017106D01*
X015695Y017032D01*
X015744Y016965D01*
X015803Y016906D01*
X015871Y016857D01*
X015945Y016819D01*
X016001Y016801D01*
X015860Y016742D01*
X015716Y016599D01*
X015639Y016411D01*
X015639Y016208D01*
X015716Y016021D01*
X015860Y015878D01*
X016023Y015810D01*
X015860Y015742D01*
X015716Y015599D01*
X015639Y015411D01*
X015639Y015208D01*
X015716Y015021D01*
X015860Y014878D01*
X016023Y014810D01*
X015860Y014742D01*
X015716Y014599D01*
X015639Y014411D01*
X015639Y014208D01*
X015716Y014021D01*
X015860Y013878D01*
X016023Y013810D01*
X015860Y013742D01*
X015716Y013599D01*
X015639Y013411D01*
X015639Y013208D01*
X015716Y013021D01*
X015860Y012878D01*
X016023Y012810D01*
X015860Y012742D01*
X015716Y012599D01*
X015639Y012411D01*
X015639Y012208D01*
X015716Y012021D01*
X015860Y011878D01*
X016023Y011810D01*
X015860Y011742D01*
X015716Y011599D01*
X015639Y011411D01*
X015639Y011208D01*
X015716Y011021D01*
X015860Y010878D01*
X016023Y010810D01*
X015860Y010742D01*
X015716Y010599D01*
X015639Y010411D01*
X015639Y010208D01*
X015716Y010021D01*
X015860Y009878D01*
X016023Y009810D01*
X015860Y009742D01*
X015716Y009599D01*
X015639Y009411D01*
X015639Y009208D01*
X015716Y009021D01*
X015860Y008878D01*
X016023Y008810D01*
X015860Y008742D01*
X015716Y008599D01*
X015639Y008411D01*
X015639Y008208D01*
X015716Y008021D01*
X015860Y007878D01*
X016023Y007810D01*
X015860Y007742D01*
X015716Y007599D01*
X015639Y007411D01*
X015639Y007208D01*
X015716Y007021D01*
X015860Y006878D01*
X016023Y006810D01*
X015860Y006742D01*
X015716Y006599D01*
X015639Y006411D01*
X010117Y006411D01*
X010117Y006456D02*
X010054Y006609D01*
X009936Y006727D01*
X009840Y006767D01*
X009936Y006806D01*
X010054Y006924D01*
X010117Y007077D01*
X010117Y007243D01*
X010054Y007397D01*
X009936Y007514D01*
X009840Y007554D01*
X009936Y007594D01*
X010054Y007711D01*
X010117Y007865D01*
X010117Y008031D01*
X010054Y008184D01*
X009936Y008302D01*
X009840Y008341D01*
X009936Y008381D01*
X010054Y008499D01*
X010117Y008652D01*
X010117Y008818D01*
X010054Y008972D01*
X009936Y009089D01*
X009840Y009129D01*
X009936Y009169D01*
X010054Y009286D01*
X010117Y009439D01*
X010117Y009606D01*
X010054Y009759D01*
X009936Y009876D01*
X009840Y009916D01*
X009936Y009956D01*
X010054Y010073D01*
X010117Y010227D01*
X010117Y010261D01*
X010211Y010167D01*
X012762Y007616D01*
X012612Y007678D01*
X012409Y007678D01*
X012222Y007601D01*
X012078Y007457D01*
X012001Y007270D01*
X012001Y007067D01*
X012078Y006879D01*
X012222Y006736D01*
X012409Y006658D01*
X012612Y006658D01*
X012800Y006736D01*
X012943Y006879D01*
X013011Y007043D01*
X013078Y006879D01*
X013222Y006736D01*
X013409Y006658D01*
X013612Y006658D01*
X013800Y006736D01*
X013943Y006879D01*
X014021Y007067D01*
X014021Y007270D01*
X013943Y007457D01*
X013800Y007601D01*
X013612Y007678D01*
X013409Y007678D01*
X013328Y007644D01*
X010508Y010464D01*
X010508Y014633D01*
X010941Y014633D01*
X011034Y014726D01*
X011034Y015453D01*
X010941Y015546D01*
X010215Y015546D01*
X010184Y015516D01*
X010153Y015546D01*
X009427Y015546D01*
X009411Y015530D01*
X009410Y015530D01*
X009369Y015554D01*
X009323Y015566D01*
X009021Y015566D01*
X009021Y015108D01*
X008984Y015108D01*
X008984Y015566D01*
X008682Y015566D01*
X008637Y015554D01*
X008595Y015530D01*
X008562Y015497D01*
X008538Y015456D01*
X008526Y015410D01*
X008526Y015123D01*
X007851Y015798D01*
X007851Y018397D01*
X007728Y018520D01*
X007614Y018520D01*
X007581Y018599D01*
X007437Y018742D01*
X007274Y018810D01*
X007437Y018878D01*
X007581Y019021D01*
X007659Y019208D01*
X007659Y019411D01*
X007581Y019599D01*
X007437Y019742D01*
X007274Y019810D01*
X007437Y019878D01*
X007581Y020021D01*
X007659Y020208D01*
X007659Y020411D01*
X007581Y020599D01*
X007437Y020742D01*
X007250Y020820D01*
X007047Y020820D01*
X006860Y020742D01*
X006716Y020599D01*
X006639Y020411D01*
X006639Y020208D01*
X006716Y020021D01*
X006860Y019878D01*
X007023Y019810D01*
X006860Y019742D01*
X006716Y019599D01*
X006639Y019411D01*
X006639Y019208D01*
X006716Y019021D01*
X006860Y018878D01*
X007023Y018810D01*
X006860Y018742D01*
X006716Y018599D01*
X006639Y018411D01*
X006639Y018208D01*
X006716Y018021D01*
X006860Y017878D01*
X007001Y017819D01*
X006945Y017801D01*
X006871Y017763D01*
X006803Y017714D01*
X006744Y017655D01*
X006695Y017588D01*
X006657Y017513D01*
X006632Y017434D01*
X006619Y017352D01*
X006619Y017328D01*
X007130Y017328D01*
X007130Y017291D01*
X006619Y017291D01*
X006619Y017268D01*
X006632Y017186D01*
X006657Y017106D01*
X006695Y017032D01*
X006744Y016965D01*
X006803Y016906D01*
X006871Y016857D01*
X006945Y016819D01*
X007001Y016801D01*
X006860Y016742D01*
X006716Y016599D01*
X006639Y016411D01*
X006639Y016208D01*
X006716Y016021D01*
X006860Y015878D01*
X007023Y015810D01*
X006860Y015742D01*
X006716Y015599D01*
X006639Y015411D01*
X006639Y015208D01*
X006716Y015021D01*
X006860Y014878D01*
X007023Y014810D01*
X006860Y014742D01*
X006716Y014599D01*
X006639Y014411D01*
X006639Y014208D01*
X006716Y014021D01*
X006860Y013878D01*
X007023Y013810D01*
X006860Y013742D01*
X006716Y013599D01*
X006639Y013411D01*
X006639Y013208D01*
X006716Y013021D01*
X006860Y012878D01*
X007023Y012810D01*
X006860Y012742D01*
X006716Y012599D01*
X006639Y012411D01*
X006639Y012208D01*
X006716Y012021D01*
X006860Y011878D01*
X007023Y011810D01*
X006860Y011742D01*
X006716Y011599D01*
X006639Y011411D01*
X006639Y011208D01*
X006716Y011021D01*
X006860Y010878D01*
X007023Y010810D01*
X006860Y010742D01*
X006716Y010599D01*
X006639Y010411D01*
X006639Y010208D01*
X006716Y010021D01*
X006860Y009878D01*
X007023Y009810D01*
X006860Y009742D01*
X006716Y009599D01*
X006639Y009411D01*
X006639Y009208D01*
X006716Y009021D01*
X006860Y008878D01*
X007023Y008810D01*
X006860Y008742D01*
X006716Y008599D01*
X006639Y008411D01*
X006639Y008208D01*
X006716Y008021D01*
X006860Y007878D01*
X007023Y007810D01*
X006860Y007742D01*
X006716Y007599D01*
X006639Y007411D01*
X006639Y007208D01*
X006716Y007021D01*
X006860Y006878D01*
X007023Y006810D01*
X006860Y006742D01*
X006716Y006599D01*
X006639Y006411D01*
X006566Y006411D01*
X006639Y006411D02*
X006639Y006208D01*
X006716Y006021D01*
X006860Y005878D01*
X007023Y005810D01*
X006860Y005742D01*
X006716Y005599D01*
X006639Y005411D01*
X006639Y005208D01*
X006716Y005021D01*
X006860Y004878D01*
X007047Y004800D01*
X007250Y004800D01*
X007437Y004878D01*
X007581Y005021D01*
X007659Y005208D01*
X007659Y005411D01*
X007581Y005599D01*
X007437Y005742D01*
X007274Y005810D01*
X007437Y005878D01*
X007581Y006021D01*
X007659Y006208D01*
X007659Y006411D01*
X008153Y006411D01*
X008254Y006311D02*
X008618Y006311D01*
X008876Y006569D01*
X008876Y006674D01*
X009242Y007040D01*
X009282Y007080D01*
X009282Y007077D01*
X009346Y006924D01*
X009463Y006806D01*
X009559Y006767D01*
X009463Y006727D01*
X009346Y006609D01*
X009282Y006456D01*
X009282Y006290D01*
X009346Y006136D01*
X009463Y006019D01*
X009559Y005979D01*
X009463Y005939D01*
X009346Y005822D01*
X009282Y005669D01*
X009282Y005502D01*
X009346Y005349D01*
X009463Y005232D01*
X009531Y005203D01*
X009470Y005172D01*
X009415Y005132D01*
X009366Y005083D01*
X009326Y005027D01*
X009294Y004966D01*
X009273Y004901D01*
X009262Y004833D01*
X009262Y004798D01*
X009262Y004764D01*
X009273Y004696D01*
X009294Y004630D01*
X009326Y004569D01*
X009366Y004513D01*
X009415Y004464D01*
X009470Y004424D01*
X009532Y004393D01*
X009597Y004371D01*
X009665Y004361D01*
X009700Y004361D01*
X009734Y004361D01*
X009802Y004371D01*
X009868Y004393D01*
X009929Y004424D01*
X009985Y004464D01*
X010033Y004513D01*
X010074Y004569D01*
X010105Y004630D01*
X010126Y004696D01*
X010137Y004764D01*
X010137Y004798D01*
X009700Y004798D01*
X009700Y004798D01*
X010137Y004798D01*
X010137Y004833D01*
X010126Y004901D01*
X010105Y004966D01*
X010074Y005027D01*
X010033Y005083D01*
X009985Y005132D01*
X009929Y005172D01*
X009868Y005203D01*
X009936Y005232D01*
X010054Y005349D01*
X010117Y005502D01*
X010117Y005669D01*
X010054Y005822D01*
X009936Y005939D01*
X009840Y005979D01*
X009936Y006019D01*
X010054Y006136D01*
X010117Y006290D01*
X010117Y006456D01*
X010070Y006570D02*
X015704Y006570D01*
X015639Y006411D02*
X015639Y006208D01*
X015716Y006021D01*
X015860Y005878D01*
X016023Y005810D01*
X015860Y005742D01*
X015716Y005599D01*
X015639Y005411D01*
X015639Y005208D01*
X015716Y005021D01*
X015860Y004878D01*
X016047Y004800D01*
X016250Y004800D01*
X016437Y004878D01*
X016581Y005021D01*
X016659Y005208D01*
X016659Y005411D01*
X016581Y005599D01*
X016437Y005742D01*
X016274Y005810D01*
X016437Y005878D01*
X016581Y006021D01*
X016659Y006208D01*
X016659Y006411D01*
X017944Y006411D01*
X017959Y006253D02*
X016659Y006253D01*
X016659Y006411D02*
X016581Y006599D01*
X016437Y006742D01*
X016274Y006810D01*
X016437Y006878D01*
X016581Y007021D01*
X016659Y007208D01*
X016659Y007411D01*
X016581Y007599D01*
X016437Y007742D01*
X016274Y007810D01*
X016437Y007878D01*
X016581Y008021D01*
X016659Y008208D01*
X016659Y008411D01*
X016581Y008599D01*
X016437Y008742D01*
X016274Y008810D01*
X016437Y008878D01*
X016581Y009021D01*
X016659Y009208D01*
X016659Y009411D01*
X016581Y009599D01*
X016437Y009742D01*
X016274Y009810D01*
X016437Y009878D01*
X016581Y010021D01*
X016659Y010208D01*
X016659Y010411D01*
X016581Y010599D01*
X016437Y010742D01*
X016274Y010810D01*
X016437Y010878D01*
X016581Y011021D01*
X016659Y011208D01*
X016659Y011411D01*
X016581Y011599D01*
X016437Y011742D01*
X016274Y011810D01*
X016437Y011878D01*
X016581Y012021D01*
X016659Y012208D01*
X016621Y012117D02*
X018005Y012117D01*
X017944Y011959D02*
X016518Y011959D01*
X016298Y011800D02*
X017944Y011800D01*
X018014Y011642D02*
X016538Y011642D01*
X016629Y011483D02*
X018201Y011483D01*
X018003Y011325D02*
X016659Y011325D01*
X016641Y011166D02*
X017944Y011166D01*
X017946Y011008D02*
X016567Y011008D01*
X016369Y010849D02*
X018019Y010849D01*
X018189Y010691D02*
X016489Y010691D01*
X016609Y010532D02*
X018001Y010532D01*
X017944Y010374D02*
X016659Y010374D01*
X016659Y010215D02*
X017949Y010215D01*
X018024Y010057D02*
X016596Y010057D01*
X016458Y009898D02*
X018177Y009898D01*
X017999Y009740D02*
X016440Y009740D01*
X016588Y009581D02*
X017944Y009581D01*
X017951Y009423D02*
X016654Y009423D01*
X016659Y009264D02*
X018029Y009264D01*
X018165Y009106D02*
X016616Y009106D01*
X016507Y008947D02*
X017997Y008947D01*
X017944Y008789D02*
X016326Y008789D01*
X016550Y008630D02*
X017953Y008630D01*
X018034Y008472D02*
X016634Y008472D01*
X016659Y008313D02*
X018152Y008313D01*
X017995Y008155D02*
X016636Y008155D01*
X016556Y007996D02*
X017944Y007996D01*
X017955Y007838D02*
X016341Y007838D01*
X016501Y007679D02*
X018039Y007679D01*
X018140Y007521D02*
X016613Y007521D01*
X016659Y007362D02*
X017993Y007362D01*
X017944Y007204D02*
X016656Y007204D01*
X016591Y007045D02*
X017957Y007045D01*
X018044Y006887D02*
X016446Y006887D01*
X016452Y006728D02*
X018128Y006728D01*
X017991Y006570D02*
X016593Y006570D01*
X016611Y006094D02*
X018050Y006094D01*
X018121Y005936D02*
X016495Y005936D01*
X016353Y005777D02*
X017989Y005777D01*
X017944Y005619D02*
X016561Y005619D01*
X016638Y005460D02*
X017961Y005460D01*
X018055Y005302D02*
X016659Y005302D01*
X016631Y005143D02*
X018116Y005143D01*
X017986Y004985D02*
X016544Y004985D01*
X016313Y004826D02*
X017944Y004826D01*
X017963Y004668D02*
X010117Y004668D01*
X010137Y004826D02*
X015984Y004826D01*
X015753Y004985D02*
X010096Y004985D01*
X009969Y005143D02*
X015666Y005143D01*
X015639Y005302D02*
X010006Y005302D01*
X010100Y005460D02*
X015659Y005460D01*
X015736Y005619D02*
X010117Y005619D01*
X010072Y005777D02*
X015944Y005777D01*
X015802Y005936D02*
X009940Y005936D01*
X010011Y006094D02*
X015686Y006094D01*
X015639Y006253D02*
X010102Y006253D01*
X009933Y006728D02*
X012241Y006728D01*
X012075Y006887D02*
X010016Y006887D01*
X010104Y007045D02*
X012010Y007045D01*
X012001Y007204D02*
X010117Y007204D01*
X010068Y007362D02*
X012039Y007362D01*
X012142Y007521D02*
X009921Y007521D01*
X010021Y007679D02*
X012699Y007679D01*
X012540Y007838D02*
X010106Y007838D01*
X010117Y007996D02*
X012382Y007996D01*
X012223Y008155D02*
X010066Y008155D01*
X009909Y008313D02*
X012065Y008313D01*
X011906Y008472D02*
X010027Y008472D01*
X010108Y008630D02*
X011748Y008630D01*
X011589Y008789D02*
X010117Y008789D01*
X010064Y008947D02*
X011431Y008947D01*
X011272Y009106D02*
X009896Y009106D01*
X010032Y009264D02*
X011114Y009264D01*
X010955Y009423D02*
X010110Y009423D01*
X010117Y009581D02*
X010797Y009581D01*
X010638Y009740D02*
X010062Y009740D01*
X009884Y009898D02*
X010480Y009898D01*
X010321Y010057D02*
X010037Y010057D01*
X010112Y010215D02*
X010163Y010215D01*
X010508Y010532D02*
X015689Y010532D01*
X015639Y010374D02*
X010598Y010374D01*
X010757Y010215D02*
X015639Y010215D01*
X015701Y010057D02*
X010915Y010057D01*
X011074Y009898D02*
X015839Y009898D01*
X015857Y009740D02*
X011232Y009740D01*
X011391Y009581D02*
X015709Y009581D01*
X015643Y009423D02*
X011549Y009423D01*
X011708Y009264D02*
X015639Y009264D01*
X015681Y009106D02*
X011866Y009106D01*
X012025Y008947D02*
X015790Y008947D01*
X015971Y008789D02*
X012183Y008789D01*
X012342Y008630D02*
X015747Y008630D01*
X015663Y008472D02*
X012500Y008472D01*
X012659Y008313D02*
X015639Y008313D01*
X015661Y008155D02*
X012817Y008155D01*
X012976Y007996D02*
X015741Y007996D01*
X015956Y007838D02*
X013134Y007838D01*
X013293Y007679D02*
X015796Y007679D01*
X015684Y007521D02*
X013880Y007521D01*
X013982Y007362D02*
X015639Y007362D01*
X015641Y007204D02*
X014021Y007204D01*
X014012Y007045D02*
X015706Y007045D01*
X015851Y006887D02*
X013946Y006887D01*
X013781Y006728D02*
X015845Y006728D01*
X018060Y004509D02*
X010029Y004509D01*
X009700Y004509D02*
X009700Y004509D01*
X009700Y004361D02*
X009700Y004798D01*
X009700Y004798D01*
X009700Y004361D01*
X009700Y004668D02*
X009700Y004668D01*
X009700Y004798D02*
X009262Y004798D01*
X009700Y004798D01*
X009700Y004798D01*
X009370Y004509D02*
X006566Y004509D01*
X006566Y004668D02*
X009282Y004668D01*
X009262Y004826D02*
X007313Y004826D01*
X007544Y004985D02*
X009304Y004985D01*
X009430Y005143D02*
X007631Y005143D01*
X007659Y005302D02*
X009393Y005302D01*
X009300Y005460D02*
X007638Y005460D01*
X007561Y005619D02*
X009282Y005619D01*
X009327Y005777D02*
X007353Y005777D01*
X007495Y005936D02*
X009459Y005936D01*
X009388Y006094D02*
X007611Y006094D01*
X007659Y006253D02*
X009298Y006253D01*
X009282Y006411D02*
X008718Y006411D01*
X008876Y006570D02*
X009329Y006570D01*
X009466Y006728D02*
X008930Y006728D01*
X009089Y006887D02*
X009383Y006887D01*
X009296Y007045D02*
X009247Y007045D01*
X008678Y007494D02*
X008375Y007191D01*
X008254Y007191D01*
X007996Y006933D01*
X007996Y006569D01*
X008254Y006311D01*
X007996Y006570D02*
X007593Y006570D01*
X007581Y006599D02*
X007437Y006742D01*
X007274Y006810D01*
X007437Y006878D01*
X007581Y007021D01*
X007659Y007208D01*
X007659Y007411D01*
X007581Y007599D01*
X007437Y007742D01*
X007274Y007810D01*
X007437Y007878D01*
X007581Y008021D01*
X007659Y008208D01*
X007659Y008411D01*
X007581Y008599D01*
X007437Y008742D01*
X007274Y008810D01*
X007437Y008878D01*
X007581Y009021D01*
X007659Y009208D01*
X007659Y009411D01*
X007581Y009599D01*
X007437Y009742D01*
X007274Y009810D01*
X007437Y009878D01*
X007581Y010021D01*
X007659Y010208D01*
X007659Y010411D01*
X007581Y010599D01*
X007437Y010742D01*
X007274Y010810D01*
X007437Y010878D01*
X007581Y011021D01*
X007610Y011092D01*
X008700Y011092D01*
X008678Y011039D01*
X008678Y010159D01*
X008626Y010211D01*
X008446Y010211D01*
X008446Y009761D01*
X008426Y009761D01*
X008426Y010211D01*
X008245Y010211D01*
X007976Y009941D01*
X007976Y009761D01*
X008426Y009761D01*
X008426Y009741D01*
X007976Y009741D01*
X007976Y009560D01*
X008245Y009291D01*
X008426Y009291D01*
X008426Y009741D01*
X008446Y009741D01*
X008446Y009291D01*
X008626Y009291D01*
X008678Y009343D01*
X008678Y007494D01*
X008678Y007521D02*
X007613Y007521D01*
X007659Y007362D02*
X008546Y007362D01*
X008387Y007204D02*
X007656Y007204D01*
X007591Y007045D02*
X008108Y007045D01*
X007996Y006887D02*
X007446Y006887D01*
X007452Y006728D02*
X007996Y006728D01*
X007581Y006599D02*
X007659Y006411D01*
X006845Y006728D02*
X006566Y006728D01*
X006566Y006570D02*
X006704Y006570D01*
X006566Y006887D02*
X006851Y006887D01*
X006706Y007045D02*
X006566Y007045D01*
X006566Y007204D02*
X006641Y007204D01*
X006639Y007362D02*
X006566Y007362D01*
X006566Y007521D02*
X006684Y007521D01*
X006796Y007679D02*
X006566Y007679D01*
X006566Y007838D02*
X006956Y007838D01*
X006741Y007996D02*
X006566Y007996D01*
X006566Y008155D02*
X006661Y008155D01*
X006639Y008313D02*
X006566Y008313D01*
X006566Y008472D02*
X006663Y008472D01*
X006747Y008630D02*
X006566Y008630D01*
X006566Y008789D02*
X006971Y008789D01*
X006790Y008947D02*
X006566Y008947D01*
X006566Y009106D02*
X006681Y009106D01*
X006639Y009264D02*
X006566Y009264D01*
X006566Y009423D02*
X006643Y009423D01*
X006709Y009581D02*
X006566Y009581D01*
X006566Y009740D02*
X006857Y009740D01*
X006839Y009898D02*
X006566Y009898D01*
X006566Y010057D02*
X006701Y010057D01*
X006639Y010215D02*
X006566Y010215D01*
X006566Y010374D02*
X006639Y010374D01*
X006689Y010532D02*
X006566Y010532D01*
X006566Y010691D02*
X006808Y010691D01*
X006928Y010849D02*
X006566Y010849D01*
X006566Y011008D02*
X006730Y011008D01*
X006656Y011166D02*
X006566Y011166D01*
X006566Y011325D02*
X006639Y011325D01*
X006668Y011483D02*
X006566Y011483D01*
X006566Y011642D02*
X006759Y011642D01*
X006566Y011800D02*
X006999Y011800D01*
X006779Y011959D02*
X006566Y011959D01*
X006566Y012117D02*
X006676Y012117D01*
X006639Y012276D02*
X006566Y012276D01*
X006566Y012434D02*
X006648Y012434D01*
X006714Y012593D02*
X006566Y012593D01*
X006566Y012751D02*
X006881Y012751D01*
X006828Y012910D02*
X006566Y012910D01*
X006566Y013068D02*
X006697Y013068D01*
X006639Y013227D02*
X006566Y013227D01*
X006566Y013385D02*
X006639Y013385D01*
X006693Y013544D02*
X006566Y013544D01*
X006566Y013702D02*
X006819Y013702D01*
X006901Y013861D02*
X006566Y013861D01*
X006566Y014019D02*
X006718Y014019D01*
X006651Y014178D02*
X006566Y014178D01*
X006566Y014336D02*
X006639Y014336D01*
X006673Y014495D02*
X006566Y014495D01*
X006566Y014653D02*
X006770Y014653D01*
X006566Y014812D02*
X007019Y014812D01*
X006767Y014970D02*
X006566Y014970D01*
X006566Y015129D02*
X006672Y015129D01*
X006639Y015287D02*
X006566Y015287D01*
X006566Y015446D02*
X006653Y015446D01*
X006721Y015604D02*
X006566Y015604D01*
X006566Y015763D02*
X006909Y015763D01*
X006816Y015921D02*
X006566Y015921D01*
X006566Y016080D02*
X006692Y016080D01*
X006639Y016238D02*
X006566Y016238D01*
X006566Y016397D02*
X006639Y016397D01*
X006698Y016555D02*
X006566Y016555D01*
X006566Y016714D02*
X006831Y016714D01*
X006849Y016872D02*
X006566Y016872D01*
X006566Y017031D02*
X006696Y017031D01*
X006631Y017189D02*
X006566Y017189D01*
X006566Y017348D02*
X006619Y017348D01*
X006655Y017506D02*
X006566Y017506D01*
X006566Y017665D02*
X006754Y017665D01*
X006566Y017823D02*
X006991Y017823D01*
X006756Y017982D02*
X006566Y017982D01*
X006566Y018140D02*
X006667Y018140D01*
X006639Y018299D02*
X006566Y018299D01*
X006566Y018457D02*
X006657Y018457D01*
X006733Y018616D02*
X006566Y018616D01*
X006566Y018774D02*
X006936Y018774D01*
X006805Y018933D02*
X006566Y018933D01*
X006566Y019091D02*
X006687Y019091D01*
X006639Y019250D02*
X006566Y019250D01*
X006566Y019408D02*
X006639Y019408D01*
X006703Y019567D02*
X006566Y019567D01*
X006566Y019725D02*
X006842Y019725D01*
X006854Y019884D02*
X006566Y019884D01*
X006566Y020042D02*
X006707Y020042D01*
X006642Y020201D02*
X006566Y020201D01*
X006566Y020359D02*
X006639Y020359D01*
X006683Y020518D02*
X006566Y020518D01*
X006566Y020676D02*
X006793Y020676D01*
X006566Y020835D02*
X008526Y020835D01*
X008526Y020993D02*
X006566Y020993D01*
X007504Y020676D02*
X008526Y020676D01*
X008526Y020518D02*
X007614Y020518D01*
X007659Y020359D02*
X008544Y020359D01*
X008984Y020359D02*
X009021Y020359D01*
X009021Y020518D02*
X008984Y020518D01*
X008984Y020676D02*
X009021Y020676D01*
X009994Y019725D02*
X007455Y019725D01*
X007443Y019884D02*
X015785Y019884D01*
X015707Y020042D02*
X007590Y020042D01*
X007655Y020201D02*
X015642Y020201D01*
X015639Y020359D02*
X014758Y020359D01*
X014771Y020518D02*
X015683Y020518D01*
X015793Y020676D02*
X014771Y020676D01*
X014771Y020835D02*
X018920Y020835D01*
X018920Y020993D02*
X014771Y020993D01*
X013735Y019725D02*
X013318Y019725D01*
X013488Y019567D02*
X013565Y019567D01*
X012721Y020258D02*
X012721Y020717D01*
X012262Y020717D01*
X012262Y020415D01*
X012274Y020369D01*
X012298Y020328D01*
X012332Y020294D01*
X012373Y020271D01*
X012419Y020258D01*
X012721Y020258D01*
X012721Y020359D02*
X012757Y020359D01*
X012757Y020518D02*
X012721Y020518D01*
X012721Y020676D02*
X012757Y020676D01*
X012262Y020676D02*
X011034Y020676D01*
X011034Y020518D02*
X012262Y020518D01*
X012280Y020359D02*
X011022Y020359D01*
X011034Y020835D02*
X012262Y020835D01*
X012262Y018933D02*
X011034Y018933D01*
X011034Y018774D02*
X012262Y018774D01*
X012262Y018835D02*
X012262Y018533D01*
X012274Y018487D01*
X012298Y018446D01*
X012332Y018412D01*
X012373Y018389D01*
X012419Y018376D01*
X012721Y018376D01*
X012721Y018835D01*
X012262Y018835D01*
X012262Y018616D02*
X011034Y018616D01*
X011001Y018457D02*
X012292Y018457D01*
X012721Y018457D02*
X012757Y018457D01*
X012757Y018616D02*
X012721Y018616D01*
X012721Y018774D02*
X012757Y018774D01*
X012757Y017448D02*
X013060Y017448D01*
X013105Y017436D01*
X013146Y017412D01*
X013147Y017412D01*
X013163Y017428D01*
X013890Y017428D01*
X013920Y017398D01*
X013951Y017428D01*
X014677Y017428D01*
X014771Y017334D01*
X014771Y016608D01*
X014677Y016514D01*
X013951Y016514D01*
X013920Y016545D01*
X013890Y016514D01*
X013163Y016514D01*
X013147Y016531D01*
X013146Y016530D01*
X013105Y016507D01*
X013060Y016494D01*
X012757Y016494D01*
X012757Y016953D01*
X012721Y016953D01*
X012721Y016494D01*
X012419Y016494D01*
X012373Y016507D01*
X012332Y016530D01*
X012298Y016564D01*
X012274Y016605D01*
X012262Y016651D01*
X012262Y016953D01*
X012721Y016953D01*
X012721Y016990D01*
X012721Y017448D01*
X012419Y017448D01*
X012373Y017436D01*
X012332Y017412D01*
X012298Y017379D01*
X012274Y017338D01*
X012262Y017292D01*
X012262Y016990D01*
X012721Y016990D01*
X012757Y016990D01*
X012757Y017448D01*
X012757Y017348D02*
X012721Y017348D01*
X012721Y017189D02*
X012757Y017189D01*
X012757Y017031D02*
X012721Y017031D01*
X012721Y016872D02*
X012757Y016872D01*
X012757Y016714D02*
X012721Y016714D01*
X012721Y016555D02*
X012757Y016555D01*
X012307Y016555D02*
X010981Y016555D01*
X010941Y016514D02*
X011034Y016608D01*
X011034Y017334D01*
X010941Y017428D01*
X010215Y017428D01*
X010184Y017398D01*
X010153Y017428D01*
X009427Y017428D01*
X009411Y017412D01*
X009410Y017412D01*
X009369Y017436D01*
X009323Y017448D01*
X009021Y017448D01*
X009021Y016990D01*
X008984Y016990D01*
X008984Y016953D01*
X008526Y016953D01*
X008526Y016651D01*
X008538Y016605D01*
X008562Y016564D01*
X008595Y016530D01*
X008637Y016507D01*
X008682Y016494D01*
X008984Y016494D01*
X008984Y016953D01*
X009021Y016953D01*
X009021Y016494D01*
X009323Y016494D01*
X009369Y016507D01*
X009410Y016530D01*
X009411Y016531D01*
X009427Y016514D01*
X010153Y016514D01*
X010184Y016545D01*
X010215Y016514D01*
X010941Y016514D01*
X011034Y016714D02*
X012262Y016714D01*
X012262Y016872D02*
X011034Y016872D01*
X011034Y017031D02*
X012262Y017031D01*
X012262Y017189D02*
X011034Y017189D01*
X011021Y017348D02*
X012280Y017348D01*
X012419Y015566D02*
X012373Y015554D01*
X012332Y015530D01*
X012298Y015497D01*
X012274Y015456D01*
X012262Y015410D01*
X012262Y015108D01*
X012721Y015108D01*
X012721Y015566D01*
X012419Y015566D01*
X012272Y015446D02*
X011034Y015446D01*
X011034Y015287D02*
X012262Y015287D01*
X012262Y015129D02*
X011034Y015129D01*
X011034Y014970D02*
X012262Y014970D01*
X012262Y015071D02*
X012262Y014769D01*
X012274Y014723D01*
X012298Y014682D01*
X012332Y014649D01*
X012373Y014625D01*
X012419Y014613D01*
X012721Y014613D01*
X012721Y015071D01*
X012757Y015071D01*
X012757Y014613D01*
X013060Y014613D01*
X013105Y014625D01*
X013146Y014649D01*
X013147Y014649D01*
X013163Y014633D01*
X013890Y014633D01*
X013920Y014663D01*
X013951Y014633D01*
X014677Y014633D01*
X014771Y014726D01*
X014771Y015453D01*
X014677Y015546D01*
X013951Y015546D01*
X013920Y015516D01*
X013890Y015546D01*
X013163Y015546D01*
X013147Y015530D01*
X013146Y015530D01*
X013105Y015554D01*
X013060Y015566D01*
X012757Y015566D01*
X012757Y015108D01*
X012721Y015108D01*
X012721Y015071D01*
X012262Y015071D01*
X012262Y014812D02*
X011034Y014812D01*
X010961Y014653D02*
X012327Y014653D01*
X012721Y014653D02*
X012757Y014653D01*
X012757Y014812D02*
X012721Y014812D01*
X012721Y014970D02*
X012757Y014970D01*
X012757Y015129D02*
X012721Y015129D01*
X012721Y015287D02*
X012757Y015287D01*
X012757Y015446D02*
X012721Y015446D01*
X013910Y014653D02*
X013930Y014653D01*
X014697Y014653D02*
X015770Y014653D01*
X015673Y014495D02*
X010508Y014495D01*
X010508Y014336D02*
X015639Y014336D01*
X015651Y014178D02*
X010508Y014178D01*
X010508Y014019D02*
X015718Y014019D01*
X015901Y013861D02*
X010508Y013861D01*
X010508Y013702D02*
X015819Y013702D01*
X015693Y013544D02*
X010508Y013544D01*
X010508Y013385D02*
X015639Y013385D01*
X015639Y013227D02*
X010508Y013227D01*
X010508Y013068D02*
X015697Y013068D01*
X015828Y012910D02*
X010508Y012910D01*
X010508Y012751D02*
X015881Y012751D01*
X015714Y012593D02*
X010508Y012593D01*
X010508Y012434D02*
X015648Y012434D01*
X015639Y012276D02*
X010508Y012276D01*
X010508Y012117D02*
X015676Y012117D01*
X015779Y011959D02*
X010508Y011959D01*
X010508Y011800D02*
X015999Y011800D01*
X015759Y011642D02*
X010508Y011642D01*
X010508Y011483D02*
X015668Y011483D01*
X015639Y011325D02*
X010508Y011325D01*
X010508Y011166D02*
X015656Y011166D01*
X015730Y011008D02*
X010508Y011008D01*
X010508Y010849D02*
X015928Y010849D01*
X015808Y010691D02*
X010508Y010691D01*
X008678Y010691D02*
X007489Y010691D01*
X007369Y010849D02*
X008678Y010849D01*
X008678Y011008D02*
X007567Y011008D01*
X007609Y010532D02*
X008678Y010532D01*
X008678Y010374D02*
X007659Y010374D01*
X007659Y010215D02*
X008678Y010215D01*
X008446Y010057D02*
X008426Y010057D01*
X008426Y009898D02*
X008446Y009898D01*
X008446Y009740D02*
X008426Y009740D01*
X008426Y009581D02*
X008446Y009581D01*
X008446Y009423D02*
X008426Y009423D01*
X008678Y009264D02*
X007659Y009264D01*
X007654Y009423D02*
X008114Y009423D01*
X007976Y009581D02*
X007588Y009581D01*
X007440Y009740D02*
X007976Y009740D01*
X007976Y009898D02*
X007458Y009898D01*
X007596Y010057D02*
X008091Y010057D01*
X007616Y009106D02*
X008678Y009106D01*
X008678Y008947D02*
X007507Y008947D01*
X007326Y008789D02*
X008678Y008789D01*
X008678Y008630D02*
X007550Y008630D01*
X007634Y008472D02*
X008678Y008472D01*
X008678Y008313D02*
X007659Y008313D01*
X007636Y008155D02*
X008678Y008155D01*
X008678Y007996D02*
X007556Y007996D01*
X007341Y007838D02*
X008678Y007838D01*
X008678Y007679D02*
X007501Y007679D01*
X006639Y006253D02*
X006566Y006253D01*
X006566Y006094D02*
X006686Y006094D01*
X006802Y005936D02*
X006566Y005936D01*
X006566Y005777D02*
X006944Y005777D01*
X006736Y005619D02*
X006566Y005619D01*
X006566Y005460D02*
X006659Y005460D01*
X006639Y005302D02*
X006566Y005302D01*
X006566Y005143D02*
X006666Y005143D01*
X006753Y004985D02*
X006566Y004985D01*
X006566Y004826D02*
X006984Y004826D01*
X012781Y006728D02*
X013241Y006728D01*
X013075Y006887D02*
X012946Y006887D01*
X016649Y012434D02*
X018920Y012434D01*
X018920Y012593D02*
X016583Y012593D01*
X016416Y012751D02*
X018920Y012751D01*
X018920Y012910D02*
X016469Y012910D01*
X016600Y013068D02*
X017458Y013068D01*
X017491Y013058D02*
X017569Y013045D01*
X017609Y013045D01*
X017609Y013550D01*
X017104Y013550D01*
X017104Y013510D01*
X017117Y013432D01*
X017141Y013356D01*
X017177Y013285D01*
X017224Y013221D01*
X017280Y013165D01*
X017344Y013118D01*
X017415Y013082D01*
X017491Y013058D01*
X017609Y013068D02*
X017609Y013068D01*
X017609Y013045D02*
X017649Y013045D01*
X017727Y013058D01*
X017803Y013082D01*
X017874Y013118D01*
X017938Y013165D01*
X017994Y013221D01*
X018041Y013285D01*
X018077Y013356D01*
X018102Y013432D01*
X018114Y013510D01*
X018114Y013550D01*
X017609Y013550D01*
X017609Y013550D01*
X017609Y013550D01*
X017104Y013550D01*
X017104Y013590D01*
X017117Y013668D01*
X017141Y013744D01*
X017177Y013815D01*
X017224Y013879D01*
X017280Y013935D01*
X017344Y013982D01*
X017415Y014018D01*
X017491Y014043D01*
X017569Y014055D01*
X017609Y014055D01*
X017609Y013550D01*
X017609Y013045D01*
X017760Y013068D02*
X018215Y013068D01*
X018124Y013227D02*
X017998Y013227D01*
X018087Y013385D02*
X018124Y013385D01*
X018114Y013544D02*
X018124Y013544D01*
X018114Y013550D02*
X018114Y013590D01*
X018102Y013668D01*
X018077Y013744D01*
X018041Y013815D01*
X017994Y013879D01*
X017938Y013935D01*
X017874Y013982D01*
X017803Y014018D01*
X017727Y014043D01*
X017649Y014055D01*
X017609Y014055D01*
X017609Y013550D01*
X017609Y013550D01*
X017609Y013550D01*
X018114Y013550D01*
X018124Y013702D02*
X018091Y013702D01*
X018124Y013861D02*
X018008Y013861D01*
X018202Y014019D02*
X017800Y014019D01*
X017609Y014019D02*
X017609Y014019D01*
X017609Y013861D02*
X017609Y013861D01*
X017609Y013702D02*
X017609Y013702D01*
X017609Y013544D02*
X017609Y013544D01*
X017609Y013385D02*
X017609Y013385D01*
X017609Y013227D02*
X017609Y013227D01*
X017220Y013227D02*
X016659Y013227D01*
X016659Y013385D02*
X017132Y013385D01*
X017104Y013544D02*
X016604Y013544D01*
X016478Y013702D02*
X017128Y013702D01*
X017211Y013861D02*
X016396Y013861D01*
X016579Y014019D02*
X017418Y014019D01*
X016646Y014178D02*
X018920Y014178D01*
X018920Y014336D02*
X016659Y014336D01*
X016624Y014495D02*
X018920Y014495D01*
X018920Y014653D02*
X016527Y014653D01*
X016278Y014812D02*
X018920Y014812D01*
X018920Y014970D02*
X016530Y014970D01*
X016625Y015129D02*
X018920Y015129D01*
X018920Y015287D02*
X016659Y015287D01*
X016644Y015446D02*
X018920Y015446D01*
X018920Y015604D02*
X016576Y015604D01*
X016388Y015763D02*
X017301Y015763D01*
X017300Y015763D02*
X017364Y015717D01*
X017435Y015681D01*
X017511Y015656D01*
X017589Y015644D01*
X017629Y015644D01*
X017669Y015644D01*
X017747Y015656D01*
X017823Y015681D01*
X017893Y015717D01*
X017958Y015763D01*
X018014Y015820D01*
X018061Y015884D01*
X018097Y015955D01*
X018121Y016030D01*
X018134Y016109D01*
X018134Y016148D01*
X017629Y016148D01*
X017629Y015644D01*
X017629Y016148D01*
X017629Y016148D01*
X017629Y016149D01*
X017629Y016149D01*
X017629Y016654D01*
X017669Y016654D01*
X017747Y016641D01*
X017823Y016617D01*
X017893Y016580D01*
X017958Y016534D01*
X018014Y016477D01*
X018061Y016413D01*
X018097Y016342D01*
X018121Y016267D01*
X018134Y016188D01*
X018134Y016149D01*
X017629Y016149D01*
X017629Y016654D01*
X017589Y016654D01*
X017511Y016641D01*
X017435Y016617D01*
X017364Y016580D01*
X017300Y016534D01*
X017244Y016477D01*
X017197Y016413D01*
X017161Y016342D01*
X017136Y016267D01*
X017124Y016188D01*
X017124Y016149D01*
X017629Y016149D01*
X017629Y016148D01*
X017124Y016148D01*
X017124Y016109D01*
X017136Y016030D01*
X017161Y015955D01*
X017197Y015884D01*
X017244Y015820D01*
X017300Y015763D01*
X017178Y015921D02*
X016481Y015921D01*
X016605Y016080D02*
X017128Y016080D01*
X017132Y016238D02*
X016659Y016238D01*
X016659Y016397D02*
X017188Y016397D01*
X017329Y016555D02*
X016599Y016555D01*
X016466Y016714D02*
X018920Y016714D01*
X018920Y016872D02*
X016448Y016872D01*
X016601Y017031D02*
X018920Y017031D01*
X018920Y017189D02*
X016666Y017189D01*
X016679Y017348D02*
X018920Y017348D01*
X018920Y017506D02*
X016642Y017506D01*
X016543Y017665D02*
X018920Y017665D01*
X018920Y017823D02*
X016360Y017823D01*
X016167Y017823D02*
X016130Y017823D01*
X016130Y017840D02*
X016130Y017328D01*
X015619Y017328D01*
X015619Y017352D01*
X015632Y017434D01*
X015657Y017513D01*
X015695Y017588D01*
X015744Y017655D01*
X015803Y017714D01*
X015871Y017763D01*
X015945Y017801D01*
X015972Y017810D01*
X015945Y017819D01*
X015871Y017857D01*
X015803Y017906D01*
X015744Y017965D01*
X015695Y018032D01*
X015657Y018106D01*
X015632Y018186D01*
X015619Y018268D01*
X015619Y018291D01*
X016130Y018291D01*
X016130Y017840D01*
X016130Y017982D02*
X016167Y017982D01*
X016167Y018140D02*
X016130Y018140D01*
X016130Y018299D02*
X007851Y018299D01*
X007851Y018140D02*
X015646Y018140D01*
X015732Y017982D02*
X007851Y017982D01*
X007851Y017823D02*
X015937Y017823D01*
X015754Y017665D02*
X007851Y017665D01*
X007851Y017506D02*
X015655Y017506D01*
X015619Y017348D02*
X014758Y017348D01*
X014771Y017189D02*
X015631Y017189D01*
X015696Y017031D02*
X014771Y017031D01*
X014771Y016872D02*
X015849Y016872D01*
X015831Y016714D02*
X014771Y016714D01*
X014718Y016555D02*
X015698Y016555D01*
X015639Y016397D02*
X007851Y016397D01*
X007851Y016555D02*
X008571Y016555D01*
X008526Y016714D02*
X007851Y016714D01*
X007851Y016872D02*
X008526Y016872D01*
X008526Y016990D02*
X008984Y016990D01*
X008984Y017448D01*
X008682Y017448D01*
X008637Y017436D01*
X008595Y017412D01*
X008562Y017379D01*
X008538Y017338D01*
X008526Y017292D01*
X008526Y016990D01*
X008526Y017031D02*
X007851Y017031D01*
X007851Y017189D02*
X008526Y017189D01*
X008544Y017348D02*
X007851Y017348D01*
X007851Y016238D02*
X015639Y016238D01*
X015692Y016080D02*
X007851Y016080D01*
X007851Y015921D02*
X015816Y015921D01*
X015909Y015763D02*
X007887Y015763D01*
X008045Y015604D02*
X015721Y015604D01*
X015653Y015446D02*
X014771Y015446D01*
X014771Y015287D02*
X015639Y015287D01*
X015672Y015129D02*
X014771Y015129D01*
X014771Y014970D02*
X015767Y014970D01*
X016019Y014812D02*
X014771Y014812D01*
X016130Y017348D02*
X016167Y017348D01*
X016167Y017506D02*
X016130Y017506D01*
X016130Y017665D02*
X016167Y017665D01*
X016565Y017982D02*
X018920Y017982D01*
X018214Y018140D02*
X017836Y018140D01*
X017629Y018140D02*
X017629Y018140D01*
X017629Y018096D02*
X017629Y018601D01*
X017629Y018601D01*
X017629Y018096D01*
X017629Y018299D02*
X017629Y018299D01*
X017629Y018457D02*
X017629Y018457D01*
X017629Y018601D02*
X017124Y018601D01*
X017629Y018601D01*
X017629Y018601D01*
X018113Y018457D02*
X018144Y018457D01*
X018144Y018299D02*
X018033Y018299D01*
X017422Y018140D02*
X016651Y018140D01*
X016658Y018457D02*
X017145Y018457D01*
X017124Y018616D02*
X016582Y018616D01*
X016405Y018774D02*
X017154Y018774D01*
X017246Y018933D02*
X016492Y018933D01*
X015892Y018774D02*
X014771Y018774D01*
X014771Y018616D02*
X015715Y018616D01*
X015639Y018457D02*
X014738Y018457D01*
X014771Y018933D02*
X015805Y018933D01*
X016167Y018299D02*
X017225Y018299D01*
X018331Y019408D02*
X018920Y019408D01*
X018920Y019250D02*
X018490Y019250D01*
X018648Y019091D02*
X018920Y019091D01*
X018920Y019567D02*
X018173Y019567D01*
X018920Y019725D02*
X016505Y019725D01*
X016505Y019884D02*
X018920Y019884D01*
X018920Y020042D02*
X016590Y020042D01*
X016655Y020201D02*
X018920Y020201D01*
X018920Y020359D02*
X016659Y020359D01*
X016614Y020518D02*
X018920Y020518D01*
X018920Y020676D02*
X016504Y020676D01*
X017629Y016555D02*
X017629Y016555D01*
X017629Y016397D02*
X017629Y016397D01*
X017629Y016238D02*
X017629Y016238D01*
X017629Y016080D02*
X017629Y016080D01*
X017629Y015921D02*
X017629Y015921D01*
X017629Y015763D02*
X017629Y015763D01*
X017957Y015763D02*
X018144Y015763D01*
X018144Y015921D02*
X018080Y015921D01*
X018129Y016080D02*
X018144Y016080D01*
X018144Y016238D02*
X018126Y016238D01*
X018144Y016397D02*
X018069Y016397D01*
X018159Y016555D02*
X017928Y016555D01*
X009825Y019567D02*
X007594Y019567D01*
X007659Y019408D02*
X009667Y019408D01*
X009021Y019250D02*
X008984Y019250D01*
X008984Y019091D02*
X009021Y019091D01*
X009021Y018933D02*
X008984Y018933D01*
X008984Y018774D02*
X009021Y018774D01*
X009021Y018616D02*
X008984Y018616D01*
X008984Y018457D02*
X009021Y018457D01*
X008555Y018457D02*
X007790Y018457D01*
X007564Y018616D02*
X008526Y018616D01*
X008526Y018774D02*
X007361Y018774D01*
X007492Y018933D02*
X008526Y018933D01*
X008526Y019091D02*
X007610Y019091D01*
X007659Y019250D02*
X008556Y019250D01*
X008984Y017348D02*
X009021Y017348D01*
X009021Y017189D02*
X008984Y017189D01*
X008984Y017031D02*
X009021Y017031D01*
X009021Y016872D02*
X008984Y016872D01*
X008984Y016714D02*
X009021Y016714D01*
X009021Y016555D02*
X008984Y016555D01*
X008984Y015446D02*
X009021Y015446D01*
X009021Y015287D02*
X008984Y015287D01*
X008984Y015129D02*
X009021Y015129D01*
X008526Y015129D02*
X008521Y015129D01*
X008526Y015287D02*
X008362Y015287D01*
X008204Y015446D02*
X008536Y015446D01*
D18*
X008684Y014668D02*
X007641Y015711D01*
X007641Y018310D01*
X007149Y018310D01*
X010578Y020735D02*
X010987Y021145D01*
X013920Y021145D01*
X014314Y020751D01*
X014314Y020735D01*
X010298Y014668D02*
X008684Y014668D01*
X010298Y014668D02*
X010298Y010377D01*
X013507Y007168D01*
X013511Y007168D01*
X010101Y010711D02*
X010101Y012306D01*
X007149Y012306D01*
X007149Y012310D01*
X007149Y011310D02*
X007149Y011302D01*
X009491Y011302D01*
X009688Y011105D01*
X009700Y011097D01*
X010101Y010711D02*
X009700Y010310D01*
D19*
X009038Y010967D03*
M02*
